<svg width="123" height="72" viewBox="0 0 123 72" fill="none" xmlns="http://www.w3.org/2000/svg">
<path d="M14.2365 56.055C23.0632 64.738 38.3483 75 61.1684 75C83.9885 75 99.2737 64.6664 108.1 56.055C117.645 46.7261 121.735 37.3253 121.95 36.9664C122.452 35.89 122.452 34.5983 121.95 33.5219C121.807 33.163 117.931 24.3363 108.459 15.5816C99.776 7.54443 84.4189 -2 60.7376 -2C37.0564 -2 21.9865 7.6161 13.4468 15.6533C4.11792 24.4083 0.45809 33.2349 0.314483 33.6655C-0.116085 34.7419 -0.116085 35.9619 0.38616 36.9664C0.530274 37.3253 4.69235 46.7261 14.2365 56.055ZM60.5226 6.89857C72.0762 6.89857 81.4768 16.2994 81.4768 27.8528C81.4768 39.4062 72.076 48.807 60.5226 48.807C48.9692 48.807 39.5684 39.4062 39.5684 27.8528C39.5684 16.2991 48.9692 6.89857 60.5226 6.89857ZM36.1955 11.0606C32.8946 15.7969 30.957 21.6096 30.957 27.8528C30.957 44.1427 44.2329 57.4184 60.5226 57.4184C76.8122 57.4184 90.0882 44.1425 90.0882 27.8528C90.0882 21.5379 88.0789 15.7252 84.7061 10.917C102.216 17.6625 110.54 30.5796 113.052 35.3158C111.473 38.1862 107.813 44.2861 101.714 50.2421C90.5904 61.078 76.9558 66.532 61.0965 66.532C45.2372 66.532 31.6026 60.9346 20.4795 50.1704C14.3079 44.1425 10.6481 38.0428 9.06945 35.1722C11.4378 30.5798 19.1881 17.8781 36.1955 11.0606Z" fill="white" fill-opacity="0.15"/>
<path d="M60.4169 33.5648C62.4767 33.5648 64.1464 31.8951 64.1464 29.8354C64.1464 27.7757 62.4767 26.106 60.4169 26.106C58.3572 26.106 56.6875 27.7757 56.6875 29.8354C56.6875 31.8951 58.3572 33.5648 60.4169 33.5648Z" stroke="white" stroke-opacity="0.15" stroke-width="2" stroke-miterlimit="10" stroke-linecap="round" stroke-linejoin="round"/>
<path d="M71.3796 24.5821L70.4472 22.9673C69.9326 22.075 68.7923 21.7701 67.9 22.2848L67.4096 22.5682C65.5449 23.6442 63.214 22.2988 63.214 20.1459V19.5791C63.214 18.5488 62.3795 17.7144 61.3493 17.7144H59.4845C58.4543 17.7144 57.6198 18.5488 57.6198 19.5791V20.1459C57.6198 22.2988 55.2889 23.6451 53.4242 22.5682L52.9338 22.2848C52.0415 21.7701 50.9012 22.075 50.3866 22.9673L49.4542 24.5821C48.9396 25.4744 49.2444 26.6147 50.1367 27.1293L50.6271 27.4128C52.4918 28.4896 52.4918 31.1804 50.6271 32.2573L50.1367 32.5407C49.2444 33.0554 48.9396 34.1957 49.4542 35.0879L50.3866 36.7028C50.9012 37.5951 52.0415 37.8999 52.9338 37.3853L53.4242 37.1018C55.2889 36.025 57.6198 37.3713 57.6198 39.5241V40.091C57.6198 41.1212 58.4543 41.9557 59.4845 41.9557H61.3493C62.3795 41.9557 63.214 41.1212 63.214 40.091V39.5241C63.214 37.3713 65.5449 36.025 67.4096 37.1018L67.9 37.3853C68.7923 37.8999 69.9326 37.5951 70.4472 36.7028L71.3796 35.0879C71.8943 34.1957 71.5894 33.0554 70.6971 32.5407L70.2067 32.2573C68.342 31.1804 68.342 28.4896 70.2067 27.4128L70.6971 27.1293C71.5894 26.6147 71.8952 25.4744 71.3796 24.5821Z" stroke="white" stroke-opacity="0.15" stroke-width="2" stroke-miterlimit="10" stroke-linecap="round" stroke-linejoin="round"/>
</svg>
