<svg width="106" height="72" viewBox="0 0 106 72" fill="none" xmlns="http://www.w3.org/2000/svg">
<path fill-rule="evenodd" clip-rule="evenodd" d="M92.7571 -7.97787C90.3183 -7.9536 87.9335 -7.25438 85.8658 -5.95732C83.798 -4.66025 82.1276 -2.81571 81.0387 -0.627102C79.9498 1.56151 79.4848 4.00918 79.6948 6.44601C79.9048 8.88284 80.7818 11.2142 82.229 13.183L71.1933 32.7058H69.8028C67.4769 32.7099 65.1932 33.3283 63.1813 34.4987L49.166 24.1618C49.3873 23.1962 49.4984 22.2086 49.497 21.2179C49.5046 19.1007 49.0073 17.0125 48.0467 15.1272C47.0861 13.2419 45.6899 11.6143 43.9747 10.38C42.2595 9.14572 40.2749 8.34056 38.1864 8.03167C36.0979 7.72278 33.966 7.9191 31.9685 8.60426C29.971 9.28942 28.1658 10.4436 26.7034 11.9705C25.241 13.4974 24.1638 15.3528 23.5616 17.382C22.9594 19.4111 22.8496 21.5553 23.2415 23.6357C23.6334 25.716 24.5155 27.6723 25.8143 29.3413L14.4475 50.4357H13.2998C10.3521 50.4135 7.48286 51.3883 5.15544 53.2026C3.08074 54.8072 1.52729 56.993 0.691644 59.4833C-0.144005 61.9736 -0.224294 64.6565 0.460936 67.1926C1.14617 69.7286 2.56612 72.0039 4.54112 73.7304C6.51613 75.4569 8.95742 76.5571 11.5561 76.8918C14.1548 77.2265 16.7941 76.7806 19.14 75.6106C21.4859 74.4405 23.433 72.5989 24.735 70.3187C26.0369 68.0386 26.6352 65.4224 26.4541 62.8011C26.273 60.1799 25.3206 57.6714 23.7175 55.5931L35.1285 34.4987H36.2541C38.5788 34.5076 40.864 33.8965 42.8756 32.7279L56.891 43.0648C56.6696 44.0304 56.5586 45.0181 56.5599 46.0088C56.5437 48.1205 57.0298 50.2057 57.978 52.0912C58.9261 53.9768 60.309 55.6085 62.0118 56.8508C63.7146 58.0931 65.6883 58.9103 67.7691 59.2346C69.8499 59.5588 71.9777 59.3808 73.9762 58.7152C75.9746 58.0496 77.7859 56.9157 79.2599 55.4076C80.7339 53.8994 81.828 52.0605 82.4515 50.0434C83.075 48.0263 83.2098 45.8892 82.8448 43.8094C82.4799 41.7295 81.6256 39.767 80.353 38.0845L91.3887 18.5617H92.7571C96.2693 18.5617 99.6377 17.1625 102.121 14.6718C104.605 12.1812 106 8.80314 106 5.28085C106 1.75855 104.605 -1.61949 102.121 -4.11013C99.6377 -6.60077 96.2693 -8 92.7571 -8V-7.97787Z" fill="white" fill-opacity="0.15"/>
</svg>
