<svg width="81" height="72" viewBox="0 0 81 72" fill="none" xmlns="http://www.w3.org/2000/svg">
<path d="M64.1323 13.1063C66.9183 12.1272 69.0619 11.0158 70.3992 9.91108C71.317 9.15692 71.6054 8.66077 71.6054 8.46231C71.6054 8.26384 71.317 7.76769 70.3992 7.00692C69.0619 5.90877 66.9249 4.79738 64.1323 3.81831C58.0227 1.68154 49.5662 0.431231 40.5001 0.431231C31.434 0.431231 22.9776 1.68815 16.868 3.81831C14.0819 4.79738 11.9383 5.90877 10.601 7.01354C9.68327 7.76769 9.39483 8.25723 9.39483 8.46231C9.39483 8.66077 9.68327 9.15692 10.601 9.91769C11.9383 11.0158 14.0754 12.1272 16.868 13.1063C22.9776 15.2431 31.434 16.4934 40.5001 16.4934C49.5662 16.4934 58.0227 15.2365 64.1323 13.1063ZM7.39544 35.3803V47.03C10.7977 50.6486 19.949 55.0545 31.1259 56.3709C47.5144 58.296 63.031 54.684 73.5655 47.4798L73.6048 35.5722C62.382 42.2338 46.5835 45.0322 30.608 43.1468C20.716 41.9891 12.2923 38.9791 7.38889 35.3803H7.39544ZM7.39544 28.1034C10.8042 31.7154 19.949 36.1212 31.1259 37.4311C47.5472 39.3628 63.0965 35.7375 73.631 28.5003L73.6769 15.296C66.9708 19.2652 54.627 21.9246 40.5001 21.9246C26.4323 21.9246 14.1278 19.2785 7.41511 15.3423C7.4063 19.5938 7.39975 23.8453 7.39544 28.0968V28.1034ZM7.40855 54.3202L7.43477 64.0977L7.33644 63.4229C9.34239 70.1177 22.1516 75.496 41.2278 75.496C51.6181 75.496 59.7598 73.9083 66.0202 70.7858C67.7771 69.906 69.1144 69.1651 70.4254 68.1992C71.2973 67.5575 71.8676 67.1672 72.8051 66.3337C73.7752 65.4671 75.2699 65.6788 76.1352 66.6645C76.9939 67.6369 77.1054 69.2246 76.1352 70.0978C75.0863 71.024 74.5947 71.4408 73.572 72.1949C72.0446 73.3195 70.3075 74.4905 68.3015 75.496C61.3921 78.9426 54.3517 81 41.2278 81C19.3656 81 4.91095 74.0208 2.14458 64.7923L2.04625 64.4615V64.1175L2.00692 50.1525C1.99126 36.4145 2.00219 22.6765 2.03969 8.93861C2.02307 8.78039 2.01432 8.62142 2.01347 8.46231C2.02003 1.02661 19.2476 -5 40.5001 -5C61.7527 -5 78.9802 1.02661 78.9802 8.46231C78.9822 8.75279 78.9581 9.04285 78.9081 9.32892C78.9712 9.5368 79.0021 9.75323 78.9999 9.97061L78.8491 57.0391C78.8426 58.3489 77.6495 59.4074 76.1811 59.4008C74.7127 59.4008 73.5261 58.3357 73.5327 57.0192V54.5451C62.323 61.1671 46.5507 63.9588 30.608 62.0866C20.7291 60.9223 12.3054 57.9189 7.402 54.3202H7.40855ZM67.3248 28.0042C66.7139 28.0094 66.1259 27.7701 65.6896 27.3385C65.2534 26.907 65.0045 26.3184 64.9976 25.702C64.9976 24.4318 66.0464 23.4065 67.3313 23.4065C68.6162 23.4065 69.665 24.4318 69.665 25.702C69.665 26.9788 68.6162 28.0042 67.3313 28.0042H67.3248ZM67.3248 46.944C66.7139 46.9493 66.1259 46.7099 65.6896 46.2784C65.2534 45.8468 65.0045 45.2583 64.9976 44.6418C64.9976 43.3717 66.0464 42.3397 67.3313 42.3397C68.6162 42.3397 69.665 43.3717 69.665 44.6418C69.665 45.912 68.6162 46.944 67.3313 46.944H67.3248ZM67.3248 66.1286C67.0217 66.1312 66.7212 66.0736 66.4402 65.959C66.1593 65.8444 65.9034 65.675 65.6873 65.4606C65.4712 65.2462 65.2991 64.991 65.1807 64.7095C65.0624 64.4279 65.0002 64.1256 64.9976 63.8198C64.9976 62.5497 66.0464 61.5177 67.3313 61.5177C68.6162 61.5177 69.665 62.5497 69.665 63.8198C69.665 65.09 68.6162 66.122 67.3313 66.122L67.3248 66.1286Z" fill="white" fill-opacity="0.15"/>
<path d="M72.9327 55.5827C61.6541 61.9086 46.1589 64.5169 30.5381 62.6825L30.5378 62.6825C21.2091 61.583 13.1176 58.8501 8.01165 55.4752L8.03349 63.6175C9.11094 66.5501 12.5306 69.3302 18.0908 71.408C23.8438 73.5578 31.7401 74.896 41.2278 74.896C51.5626 74.896 59.6028 73.3159 65.7516 70.2494C67.4979 69.3748 68.7995 68.6518 70.0696 67.7162L70.0698 67.716C70.2034 67.6176 70.3293 67.5257 70.4499 67.4375C71.1235 66.9453 71.6324 66.5735 72.4053 65.8862L72.9327 55.5827ZM72.9327 55.5827L72.9327 57.0162C72.9327 57.0168 72.9327 57.0173 72.9327 57.0179V57.0192H73.5327C73.5261 58.3357 74.7127 59.4008 76.1811 59.4008M72.9327 55.5827L76.1811 59.4008M76.1811 59.4008L76.1784 60.0008C76.1788 60.0008 76.1793 60.0008 76.1797 60.0008C76.1802 60.0008 76.1806 60.0008 76.1811 60.0008V59.4008ZM70.0183 9.44751L70.0171 9.44851C68.7571 10.4894 66.688 11.5722 63.9339 12.5401C57.9049 14.6419 49.5194 15.8934 40.5001 15.8934C31.4802 15.8934 23.0949 14.6484 17.0665 12.5401C14.3074 11.5728 12.244 10.4901 10.9829 9.4549C10.5475 9.09389 10.2814 8.8119 10.1301 8.61431C10.0816 8.5509 10.0476 8.49982 10.0245 8.46097C10.0473 8.42281 10.0808 8.37261 10.1289 8.31021C10.2797 8.11462 10.5456 7.83569 10.982 7.4771L10.9832 7.47611C12.2432 6.43518 14.3123 5.35246 17.0664 4.38456C23.0953 2.28269 31.4808 1.03123 40.5001 1.03123C49.5201 1.03123 57.9054 2.27624 63.9338 4.38452C66.6933 5.352 68.7569 6.43481 70.0179 7.4702C70.453 7.83098 70.7189 8.1128 70.8701 8.3103C70.9181 8.37291 70.9518 8.42351 70.9748 8.46218C70.9519 8.50056 70.9184 8.55072 70.8707 8.61271C70.7197 8.80925 70.4538 9.08963 70.0183 9.44751ZM9.98461 8.38181C9.98467 8.38183 9.98516 8.38313 9.98589 8.38565C9.98491 8.38305 9.98455 8.38179 9.98461 8.38181ZM9.98642 8.53523C9.98578 8.53743 9.98535 8.53858 9.98529 8.53862C9.98523 8.53866 9.98555 8.53755 9.98642 8.53523ZM71.0156 8.54279C71.0156 8.54275 71.0151 8.5415 71.0144 8.53906C71.0154 8.54162 71.0157 8.54284 71.0156 8.54279ZM71.0144 8.38548C71.0151 8.38293 71.0156 8.38164 71.0157 8.38169C71.0157 8.38174 71.0153 8.38302 71.0144 8.38548ZM7.99544 46.7881V36.5334C13.1012 39.9098 21.1948 42.6492 30.5383 43.7427C46.1894 45.5897 61.7092 42.9762 73.0014 36.6142L72.9665 47.1611C62.576 54.1528 47.3309 57.6703 31.1961 55.775C25.6641 55.1235 20.6362 53.7074 16.5766 52.0102C12.6363 50.3629 9.65187 48.4692 7.99544 46.7881ZM31.196 36.8352L31.1958 36.8352C25.6639 36.1869 20.6377 34.7725 16.5789 33.0769C12.6401 31.4315 9.6555 29.5395 7.99568 27.8611C7.99964 24.0286 8.00542 20.196 8.01304 16.3635C15.015 20.0941 26.9845 22.5246 40.5001 22.5246C54.0665 22.5246 66.0716 20.084 73.0733 16.3246L73.0321 28.1824C62.6416 35.2063 47.3639 38.7371 31.196 36.8352ZM79.5802 8.46036C79.5795 6.35196 78.3565 4.4286 76.3388 2.75956C74.3166 1.08684 71.4265 -0.392665 67.908 -1.62357C60.8655 -4.08733 51.1754 -5.6 40.5001 -5.6C29.8248 -5.6 20.1347 -4.08733 13.0914 -1.62358C9.57257 -0.392674 6.68191 1.08681 4.65882 2.75947C2.63958 4.42894 1.41533 6.35279 1.41346 8.46178L1.41348 8.46552C1.41438 8.63342 1.4231 8.80119 1.43961 8.96827C1.40217 22.6965 1.39127 36.4248 1.40692 50.1531L1.40692 50.1541L1.44625 64.1175V64.1184V64.4615V64.5488L1.47112 64.6325L1.56945 64.9633L1.56985 64.9646C3.02479 69.8182 7.51374 73.974 14.2868 76.9074C21.0737 79.8468 30.2388 81.6 41.2278 81.6C54.4334 81.6 61.5673 79.5257 68.5693 76.0329L68.5704 76.0324C70.6185 75.0057 72.3861 73.8132 73.9278 72.6781L73.9281 72.6778C74.9702 71.9093 75.4764 71.48 76.5323 70.5476L76.5366 70.5438C77.8147 69.3934 77.6002 67.4183 76.5861 66.2686C76.5857 66.2682 76.5853 66.2677 76.5849 66.2673L76.1352 66.6645L79.5802 8.46036ZM64.3976 25.702L64.3976 25.7087C64.4063 26.4823 64.7186 27.2219 65.2677 27.7651C65.8164 28.3079 66.557 28.6102 67.3276 28.6042H67.3313C68.9382 28.6042 70.265 27.3194 70.265 25.702C70.265 24.0901 68.9371 22.8065 67.3313 22.8065C65.7255 22.8065 64.3976 24.0901 64.3976 25.702ZM64.3976 44.6418L64.3976 44.6486C64.4063 45.4221 64.7186 46.1617 65.2677 46.7049C65.8163 47.2476 66.5567 47.5499 67.3272 47.544H67.3313C68.9394 47.544 70.265 46.2515 70.265 44.6418C70.265 43.0322 68.9394 41.7397 67.3313 41.7397C65.7233 41.7397 64.3976 43.0322 64.3976 44.6418ZM67.3299 66.7286L67.5768 66.7265L67.5926 66.7105C69.0805 66.5796 70.265 65.3414 70.265 63.8198C70.265 62.2102 68.9394 60.9177 67.3313 60.9177C65.7233 60.9177 64.3976 62.2102 64.3976 63.8198L64.3976 63.8249C64.4008 64.2087 64.479 64.5883 64.6276 64.942C64.7763 65.2957 64.9927 65.6167 65.2647 65.8866C65.5368 66.1565 65.8592 66.3699 66.2136 66.5145C66.568 66.6591 66.9474 66.7319 67.3299 66.7286Z" stroke="white" stroke-opacity="0.15" stroke-width="1.2"/>
</svg>
