<svg width="18" height="18" viewBox="0 0 18 18" fill="none" xmlns="http://www.w3.org/2000/svg">
<g clip-path="url(#clip0_1502_1493)">
<path fill-rule="evenodd" clip-rule="evenodd" d="M9 0C4.02945 0 0 4.02945 0 9C0 13.9705 4.02945 18 9 18C13.9705 18 18 13.9705 18 9C18 4.02945 13.9705 0 9 0ZM3.75 8.98511C3.75 6.09847 6.10507 3.75 8.99992 3.75C11.8948 3.75 14.2499 6.09847 14.2499 8.98511C14.2499 9.39405 14.2158 9.7251 14.1393 10.0574L14.1382 10.0629C14.138 10.0639 14.1 10.2171 14.0791 10.2839C13.9493 10.6977 13.7144 11.0424 13.3997 11.2806C13.0945 11.5116 12.716 11.6389 12.3341 11.6389C12.2869 11.6389 12.2394 11.637 12.1929 11.6333C11.6506 11.5899 11.1737 11.3053 10.8813 10.8515C10.3784 11.3558 9.71115 11.6332 8.99992 11.6332C7.53566 11.6332 6.3444 10.4453 6.3444 8.98511C6.3444 7.52498 7.53566 6.33709 8.99992 6.33709C10.4642 6.33709 11.6554 7.52498 11.6554 8.98511V9.83873C11.6576 10.3368 11.9928 10.5404 12.2792 10.5634C12.564 10.5854 12.9432 10.4199 13.0753 9.87979C13.1404 9.58358 13.1735 9.28249 13.1735 8.98511C13.1735 6.69026 11.3013 4.82329 8.99992 4.82329C6.69859 4.82329 4.82636 6.69026 4.82636 8.98511C4.82636 11.2799 6.69859 13.1469 8.99992 13.1469C9.801 13.1469 10.5801 12.9188 11.253 12.4872L11.265 12.4794L11.9723 13.2994L11.9571 13.3097C11.0831 13.9054 10.0605 14.2203 8.99992 14.2203C6.10507 14.2203 3.75 11.8718 3.75 8.98511Z" fill="black"/>
<path fill-rule="evenodd" clip-rule="evenodd" d="M10.5792 8.98506C10.5792 9.85338 9.87081 10.5598 9.00006 10.5598C8.12927 10.5598 7.4209 9.85338 7.4209 8.98506C7.4209 8.11679 8.12927 7.4104 9.00006 7.4104C9.87081 7.4104 10.5792 8.11679 10.5792 8.98506Z" fill="black"/>
</g>
<defs>
<clipPath id="clip0_1502_1493">
<rect width="18" height="18" fill="white"/>
</clipPath>
</defs>
</svg>
