<svg width="18" height="18" viewBox="0 0 18 18" fill="none" xmlns="http://www.w3.org/2000/svg">
<path d="M9 0C4.02979 0 0 4.02979 0 9C0 13.9701 4.02979 18 9 18C13.9702 18 17.9999 13.9701 17.9999 9C18 4.02979 13.9702 0 9 0ZM13.7526 13.132L13.032 13.8528C12.9033 13.9812 12.5266 14.0614 12.5145 14.0614C10.2348 14.0813 8.03981 13.1858 6.42705 11.5729C4.80987 9.95481 3.91338 7.75198 3.93746 5.4646C3.93746 5.46356 4.01996 5.09764 4.1485 4.97032L4.86908 4.24963C5.13277 3.98472 5.63929 3.86501 5.99413 3.98372L6.14571 4.03428C6.4995 4.15288 6.87095 4.54407 6.96871 4.90447L7.33118 6.23485C7.42893 6.59629 7.29709 7.11049 7.03348 7.37418L6.55233 7.8554C7.02472 9.60424 8.39691 10.9767 10.146 11.4502L10.627 10.9689C10.8919 10.704 11.4059 10.5723 11.7666 10.6699L13.0968 11.0336C13.4573 11.1327 13.8484 11.5018 13.9669 11.8555L14.0175 12.0092C14.135 12.3631 14.0162 12.8695 13.7526 13.132Z" fill="black"/>
</svg>
