<svg width="13" height="18" viewBox="0 0 13 18" fill="none" xmlns="http://www.w3.org/2000/svg">
<path d="M5.95625 14.675C6.03125 14.7 6.10625 14.7125 6.18125 14.7125C6.25625 14.7125 6.33125 14.7063 6.4 14.675C6.4625 14.6563 12.3625 12.5688 12.3625 6.175C12.3625 2.775 9.5875 0 6.18125 0C2.775 0 0 2.775 0 6.175C0 12.5688 5.9 14.6563 5.95625 14.675ZM6.18125 2.81875C8.01875 2.81875 9.5125 4.3125 9.5125 6.15C9.5125 7.98125 8.01875 9.48125 6.18125 9.48125C4.34375 9.48125 2.85 7.98125 2.85 6.15C2.85 4.3125 4.34375 2.81875 6.18125 2.81875Z" fill="black"/>
<path d="M9.81875 13.6374C9.5 13.4312 9.06875 13.5249 8.8625 13.8437C8.65625 14.1624 8.75 14.5937 9.06875 14.7999C9.325 14.9624 9.40625 15.0999 9.40625 15.1437C9.40625 15.3937 8.29375 16.1187 6.175 16.1187C4.05625 16.1187 2.95 15.3937 2.95 15.1437C2.95 15.0999 3.03125 14.9624 3.2875 14.7999C3.60625 14.5937 3.7 14.1687 3.49375 13.8437C3.2875 13.5249 2.8625 13.4312 2.5375 13.6374C1.73125 14.1562 1.5625 14.7437 1.5625 15.1437C1.56875 16.6874 3.8875 17.4999 6.18125 17.4999C8.475 17.4999 10.7937 16.6874 10.7937 15.1437C10.7937 14.7437 10.625 14.1499 9.81875 13.6374Z" fill="black"/>
</svg>
