<svg width="159" height="44" viewBox="0 0 159 44" fill="none" xmlns="http://www.w3.org/2000/svg">
<path d="M37.7203 27.8889L0 20.729V22.0311L37.7203 31.3603V27.8889Z" fill="#314867"/>
<path d="M39.926 22.9705V25.864L5.66211 19.4991V18.4141L39.926 22.9705Z" fill="#314867"/>
<path d="M42.2796 17.9809V20.3672L11.4707 16.9681V16.1001L42.2796 17.9809Z" fill="#314867"/>
<path d="M17.2061 13.7859V14.3646L44.4849 14.7979V12.9902L17.2061 13.7859Z" fill="#314867"/>
<path d="M22.9414 11.4714V11.9054L46.8389 9.30205V8L22.9414 11.4714Z" fill="#314867"/>
<path d="M61.8378 15.8111H60.1463V14.5813H56.5435V17.4025H58.8965C61.2495 17.4025 62.8672 18.4867 62.8672 20.6569C62.8672 22.8986 61.3966 24.1282 59.1906 24.1282H53.1611V22.6092H54.2643V14.5813H53.1611V13.063H61.8378V15.8111ZM56.5435 18.9208V22.6092H58.6762C59.7056 22.6092 60.5137 21.8866 60.5137 20.6569C60.5137 19.4271 59.7056 18.9208 58.6024 18.9208H56.5435Z" fill="#314867"/>
<path d="M65.6611 24.1282V22.6092H66.7644V14.5813H65.6611V13.063H74.779V16.245H73.0875V14.5813H69.1168V22.6092H70.6613V24.1282H65.6611Z" fill="#314867"/>
<path d="M79.7061 24.1282V22.6092H81.0302V14.5813H78.8975L78.9708 16.3898H77.2793V13.063H87.0592V16.3898H85.441V14.5813H83.3827V22.6092H84.633V24.1282H79.7061Z" fill="#314867"/>
<path d="M93.6763 13.063V14.5813H92.7213L93.9705 17.5471L94.8528 19.8611H94.9267L95.809 17.5471L96.9855 14.5813H95.9561V13.063H100V14.5813H99.1915L95.8828 22.5376C95.294 23.8389 94.5587 24.3453 93.4555 24.3453C92.9416 24.3453 92.2063 24.273 91.1768 23.9836L91.5442 22.4652C92.1325 22.6092 92.5004 22.6815 92.8683 22.6815C93.3095 22.6815 93.6036 22.4652 93.8972 21.8866L94.1175 21.2355H93.4555L90.3677 14.5813H89.5586V13.063H93.6763Z" fill="#314867"/>
<path d="M55.6623 28.9831C55.5885 29.0555 54.265 31.1525 54.1914 31.2972H53.6766V28.6215H53.2354V28.2598H54.1914V30.5745C54.3385 30.3575 54.412 30.2129 54.4856 30.0682L55.1473 29.0555L55.7355 28.2598H56.1762C56.1762 29.1278 56.25 29.9958 56.25 30.8632H56.6912V31.1525C56.4703 31.2972 56.25 31.2972 56.1035 31.2972C55.8831 31.2972 55.7355 31.1525 55.7355 30.8632V28.9831H55.6623Z" fill="#314867"/>
<path d="M60.2198 29.1278C60.1459 29.2725 60.0732 29.4895 59.9262 29.7065C59.7053 30.0682 59.5582 30.5022 59.2641 30.9362H58.8967C58.8967 30.8632 58.5288 30.2129 58.2347 29.7065C58.0876 29.4171 57.9406 29.1278 57.9406 29.0555H57.8668V31.2972H57.4256V28.6215H56.9844V28.2598H57.9406L58.7497 29.7065C58.8967 29.9958 59.0438 30.2852 59.1171 30.4298C59.1171 30.3575 59.3379 29.9958 59.485 29.6342L60.2198 28.2598H61.1759V28.6215H60.7342V30.8632H61.1759V31.1525C61.0283 31.2972 60.808 31.2972 60.6609 31.2972C60.2198 31.2972 60.2941 30.9362 60.2941 30.6469V29.1278H60.2198Z" fill="#314867"/>
<path d="M62.0925 31.2991C61.835 31.2991 61.7617 31.0821 61.7617 30.9736C61.7617 30.7927 61.9088 30.6479 62.0925 30.6479C62.2762 30.6479 62.4238 30.7927 62.4238 30.9736C62.4238 31.0821 62.35 31.2991 62.0925 31.2991Z" fill="#314867"/>
<path d="M64.7789 27.3915V27.0298H66.6174C67.4998 27.0298 68.0148 27.4638 68.0148 28.1148C68.0148 28.3318 67.8677 28.8382 67.3528 29.0552C67.941 29.1999 68.0881 29.6339 68.0881 30.0679C68.0881 30.7905 67.5736 31.2969 66.9116 31.2969H64.7051V30.8629H65.1463V27.3915H64.7789ZM66.6174 27.3915H65.6613V28.8382H66.6174C67.1319 28.8382 67.426 28.5488 67.426 28.1148C67.426 27.7531 67.2057 27.3915 66.6174 27.3915ZM66.6907 29.2722H65.6613V30.8629H66.6907C67.3528 30.8629 67.5736 30.5019 67.5736 30.0679C67.5736 29.6339 67.2789 29.2722 66.6907 29.2722Z" fill="#314867"/>
<path d="M69.0437 31.2991C68.8228 31.2991 68.6758 31.1544 68.6758 30.9736C68.6758 30.7927 68.8228 30.6479 69.0437 30.6479C69.264 30.6479 69.4116 30.7927 69.4116 30.9736C69.4116 31.1544 69.264 31.2991 69.0437 31.2991Z" fill="#314867"/>
<path d="M71.6914 31.2969V30.8629H72.0588V27.3915H71.6914V27.0298H74.7792V27.9702H74.338V27.3915H72.647V30.8629H73.2347V31.2969H71.6914Z" fill="#314867"/>
<path d="M74.9262 31.2982C74.7058 31.2982 74.5615 31.1544 74.5615 30.9736C74.5615 30.7927 74.7086 30.6479 74.9262 30.6479C75.1438 30.6479 75.2968 30.7927 75.2968 30.9736C75.2968 31.1544 75.147 31.2982 74.9262 31.2982Z" fill="#314867"/>
<path d="M80.0778 27.3915H79.7098V27.0298H81.0339V27.3915H80.666V30.8629H82.2099V27.3915H81.7682V27.0298H83.0923V27.3915H82.7243V30.8629H83.0923V31.2969H77.5771V30.8629H78.0183V27.3915H77.5771V27.0298H78.9013V27.3915H78.5333V30.8629H80.0778V27.3915Z" fill="#314867"/>
<path d="M85.3009 30.2852L85.8153 28.6215H85.448V28.2598H86.6245V28.6215H86.3303L85.2276 31.7312C85.08 32.1652 84.9335 32.5992 84.272 32.5992C84.1982 32.5992 83.9773 32.5992 83.6832 32.5269L83.757 32.1652C83.9041 32.1652 84.125 32.2375 84.272 32.2375C84.5661 32.2375 84.7132 31.9482 84.7865 31.5865L84.9335 31.2248H84.7132C84.4191 30.3575 84.1249 29.4895 83.8303 28.6215H83.4629V28.2598H84.1982L84.8603 30.2852L85.0073 30.9362H85.08L85.3009 30.2852Z" fill="#314867"/>
<path d="M88.5294 28.2598H89.7054V28.6215H89.338L88.6032 29.7065L89.338 30.8632H89.7792V31.2972H88.5294V30.8632H88.7503L88.2353 29.9958L87.7208 30.8632H87.9412V31.2972H86.7646V30.8632H87.1326L87.9412 29.6342L87.3529 28.6215H86.8379V28.2598H87.647L88.3091 29.3448L88.7503 28.6215H88.5294V28.2598Z" fill="#314867"/>
<path d="M91.4071 31.2977C90.4509 31.2977 90.083 30.575 90.083 29.7794C90.083 28.9837 90.4509 28.188 91.4804 28.188C92.5098 28.188 92.8039 28.9837 92.8039 29.7794C92.8039 30.5027 92.5098 31.2977 91.4071 31.2977ZM91.4804 28.622C90.8183 28.622 90.6713 29.2007 90.6713 29.7794C90.6713 30.3581 90.7451 30.9367 91.4804 30.9367C92.1424 30.9367 92.2895 30.2857 92.2895 29.7794C92.2895 29.273 92.1424 28.622 91.4804 28.622Z" fill="#314867"/>
<path d="M95.8814 29.0555C95.8814 29.2001 95.8081 29.4895 95.514 29.6342C95.8814 29.8512 96.029 30.1405 96.029 30.4298C96.029 30.9362 95.5872 31.2972 94.999 31.2972H93.3086V30.9362H93.6027V28.6215H93.3086V28.2598H94.9257C95.5872 28.2598 95.8814 28.5491 95.8814 29.0555ZM94.1166 28.6215V29.5618H94.8519C95.1461 29.5618 95.3669 29.3448 95.3669 29.0555C95.3669 28.7661 95.2199 28.6215 94.7787 28.6215H94.1166ZM94.1166 29.8512V30.9362H94.8519C95.2931 30.9362 95.514 30.6469 95.514 30.3575C95.514 30.1405 95.2931 29.8512 94.8519 29.8512H94.1166Z" fill="#314867"/>
<path d="M98.8237 30.8637H99.3382V31.153C99.1911 31.2253 98.897 31.2977 98.7499 31.2977C98.5296 31.2977 98.3825 31.2253 98.3825 30.9367C97.8675 31.2977 97.5007 31.2977 97.2798 31.2977C96.6183 31.2977 96.3975 30.7913 96.3975 30.4304C96.3975 29.924 96.7654 29.5623 97.574 29.5623L98.3825 29.49V29.273C98.3825 28.7667 98.1617 28.622 97.7205 28.622C97.3536 28.622 97.0595 28.6943 96.7654 28.7667C96.6916 28.6943 96.6916 28.5496 96.6183 28.405C96.9857 28.2603 97.4269 28.188 97.7948 28.188C98.4558 28.188 98.8237 28.4773 98.8237 29.2007V30.8637ZM97.574 29.8517C97.2066 29.924 96.9857 30.141 96.9857 30.4304C96.9857 30.7198 97.1328 30.9367 97.5007 30.9367C97.7948 30.9367 98.0884 30.7913 98.3087 30.575V29.8517H97.574Z" fill="#314867"/>
<g filter="url(#filter0_d_1456_692)">
<path d="M119.8 14.5508V16.2119C119.8 16.9137 119.713 17.529 119.54 18.0576C119.371 18.5817 119.13 19.0215 118.815 19.377C118.506 19.7279 118.13 19.9922 117.688 20.1699C117.25 20.3477 116.765 20.4365 116.231 20.4365C115.698 20.4365 115.211 20.3477 114.769 20.1699C114.331 19.9922 113.953 19.7279 113.634 19.377C113.319 19.0215 113.076 18.5817 112.902 18.0576C112.729 17.529 112.643 16.9137 112.643 16.2119V14.5508C112.643 13.8307 112.727 13.2018 112.896 12.6641C113.064 12.1217 113.308 11.6706 113.627 11.3105C113.946 10.946 114.324 10.6725 114.762 10.4902C115.199 10.3034 115.685 10.21 116.218 10.21C116.751 10.21 117.236 10.3034 117.674 10.4902C118.111 10.6725 118.49 10.946 118.809 11.3105C119.128 11.6706 119.371 12.1217 119.54 12.6641C119.713 13.2018 119.8 13.8307 119.8 14.5508ZM117.811 16.2119V14.5371C117.811 14.0632 117.776 13.6598 117.708 13.3271C117.64 12.9899 117.537 12.7142 117.4 12.5C117.264 12.2858 117.097 12.1286 116.901 12.0283C116.705 11.9281 116.478 11.8779 116.218 11.8779C115.958 11.8779 115.728 11.9281 115.527 12.0283C115.331 12.1286 115.165 12.2858 115.028 12.5C114.896 12.7142 114.796 12.9899 114.728 13.3271C114.664 13.6598 114.632 14.0632 114.632 14.5371V16.2119C114.632 16.6676 114.666 17.0573 114.734 17.3809C114.803 17.7044 114.905 17.9688 115.042 18.1738C115.179 18.3789 115.345 18.5316 115.541 18.6318C115.742 18.7275 115.972 18.7754 116.231 18.7754C116.487 18.7754 116.712 18.7275 116.908 18.6318C117.109 18.5316 117.275 18.3789 117.407 18.1738C117.539 17.9688 117.64 17.7044 117.708 17.3809C117.776 17.0573 117.811 16.6676 117.811 16.2119ZM129.909 10.3467V20.2998H127.912V12.0078H124.952V20.2998H122.95V10.3467H129.909ZM135.102 16.6426L138.213 10.3467H140.113V20.2998H138.178V14.0791L135.095 20.2998H133.161V10.3467H135.102V16.6426ZM145.272 16.6426L148.383 10.3467H150.283V20.2998H148.349V14.0791L145.266 20.2998H143.331V10.3467H145.272V16.6426ZM118.371 24.3467V26.0078H114.796V34.2998H112.8V24.3467H118.371ZM114.146 27.9287H116.04C116.705 27.9287 117.282 28.0586 117.77 28.3184C118.257 28.5781 118.633 28.945 118.897 29.4189C119.166 29.8929 119.301 30.4489 119.301 31.0869C119.301 31.5609 119.223 31.9938 119.068 32.3857C118.918 32.7777 118.699 33.1172 118.412 33.4043C118.13 33.6914 117.788 33.9124 117.387 34.0674C116.99 34.2223 116.541 34.2998 116.04 34.2998H112.8V24.3467H114.803V32.6455H116.04C116.323 32.6455 116.555 32.5749 116.737 32.4336C116.924 32.2878 117.065 32.0964 117.161 31.8594C117.257 31.6178 117.305 31.3558 117.305 31.0732C117.305 30.7907 117.257 30.5378 117.161 30.3145C117.065 30.0911 116.924 29.9157 116.737 29.7881C116.555 29.6559 116.323 29.5898 116.04 29.5898H114.146V27.9287ZM127.728 24.3467V26.0078H124.146V34.2998H122.15V24.3467H127.728ZM134.678 24.3467V34.2998H132.689V24.3467H134.678ZM137.153 24.3467V26.0078H130.262V24.3467H137.153ZM142.572 30.6699L144.486 24.3467H146.633L143.898 32.3516C143.789 32.6296 143.668 32.8962 143.536 33.1514C143.408 33.402 143.256 33.6253 143.078 33.8213C142.9 34.0173 142.686 34.1699 142.436 34.2793C142.185 34.3887 141.886 34.4434 141.54 34.4434C141.458 34.4434 141.353 34.4411 141.226 34.4365C141.102 34.432 141.002 34.4274 140.925 34.4229L140.891 32.7617C140.936 32.7708 141.011 32.7777 141.116 32.7822C141.221 32.7868 141.294 32.7891 141.335 32.7891C141.549 32.7891 141.711 32.7526 141.82 32.6797C141.934 32.6022 142.021 32.4928 142.08 32.3516C142.144 32.2103 142.199 32.0439 142.244 31.8525L142.572 30.6699ZM141.643 24.3467L143.263 29.1523L143.864 31.5244L142.381 31.5449L139.503 24.3467H141.643Z" fill="white"/>
</g>
<defs>
<filter id="filter0_d_1456_692" x="108.643" y="6.20996" width="45.6406" height="32.2334" filterUnits="userSpaceOnUse" color-interpolation-filters="sRGB">
<feFlood flood-opacity="0" result="BackgroundImageFix"/>
<feColorMatrix in="SourceAlpha" type="matrix" values="0 0 0 0 0 0 0 0 0 0 0 0 0 0 0 0 0 0 127 0" result="hardAlpha"/>
<feOffset/>
<feGaussianBlur stdDeviation="2"/>
<feComposite in2="hardAlpha" operator="out"/>
<feColorMatrix type="matrix" values="0 0 0 0 0.0352941 0 0 0 0 0.537255 0 0 0 0 0.733333 0 0 0 1 0"/>
<feBlend mode="normal" in2="BackgroundImageFix" result="effect1_dropShadow_1456_692"/>
<feBlend mode="normal" in="SourceGraphic" in2="effect1_dropShadow_1456_692" result="shape"/>
</filter>
</defs>
</svg>
