<svg width="18" height="18" viewBox="0 0 18 18" fill="none" xmlns="http://www.w3.org/2000/svg">
<g clip-path="url(#clip0_1499_1049)">
<path fill-rule="evenodd" clip-rule="evenodd" d="M0 9C0 4.02945 4.02945 0 9 0C13.9705 0 18 4.02945 18 9C18 13.9705 13.9705 18 9 18C4.02945 18 0 13.9705 0 9ZM9.47081 11.9535C9.47081 11.9535 9.64406 11.9346 9.73279 11.8411C9.81401 11.7554 9.8112 11.5936 9.8112 11.5936C9.8112 11.5936 9.8004 10.8382 10.1577 10.7266C10.5099 10.6169 10.962 11.4571 11.4419 11.7802C11.8044 12.0245 12.0795 11.9711 12.0795 11.9711L13.3618 11.9535C13.3618 11.9535 14.0323 11.913 13.7145 11.3954C13.6882 11.353 13.529 11.0124 12.7613 10.3127C11.957 9.58039 12.065 9.69881 13.0332 8.43184C13.6229 7.66027 13.8586 7.18924 13.7849 6.98786C13.715 6.79519 13.2811 6.84634 13.2811 6.84634L11.8377 6.85511C11.8377 6.85511 11.7307 6.84083 11.6513 6.88736C11.5738 6.933 11.5236 7.03946 11.5236 7.03946C11.5236 7.03946 11.2954 7.63631 10.9907 8.14421C10.3479 9.21536 10.0911 9.27203 9.98588 9.20569C9.74126 9.05036 9.80227 8.58255 9.80227 8.25023C9.80227 7.21185 9.96289 6.77906 9.49005 6.66705C9.33323 6.62974 9.21772 6.60529 8.81625 6.60116C8.30119 6.5961 7.86544 6.603 7.61846 6.72146C7.45414 6.80025 7.32735 6.97631 7.40483 6.98647C7.50015 6.99889 7.71615 7.04362 7.83071 7.19662C7.97861 7.39436 7.97344 7.83773 7.97344 7.83773C7.97344 7.83773 8.05845 9.06004 7.77484 9.21165C7.58044 9.31582 7.31374 9.10335 6.74044 8.13131C6.447 7.63357 6.22538 7.08326 6.22538 7.08326C6.22538 7.08326 6.18262 6.98047 6.10609 6.92516C6.01361 6.85834 5.88446 6.8376 5.88446 6.8376L4.51298 6.84634C4.51298 6.84634 4.30684 6.85189 4.23124 6.9399C4.16411 7.01779 4.22606 7.17956 4.22606 7.17956C4.22606 7.17956 5.29991 9.64583 6.516 10.8889C7.63114 12.0282 8.89703 11.9535 8.89703 11.9535H9.47081Z" fill="white"/>
</g>
<defs>
<clipPath id="clip0_1499_1049">
<rect width="18" height="18" fill="white"/>
</clipPath>
</defs>
</svg>
