<svg width="18" height="18" viewBox="0 0 18 18" fill="none" xmlns="http://www.w3.org/2000/svg">
<path d="M9 0C4.02943 0 0 4.02943 0 9C0 13.9706 4.02943 18 9 18C13.9706 18 18 13.9706 18 9C18 4.02943 13.9706 0 9 0ZM13.6779 5.69306L12.0794 13.3242C12.06 13.4165 12.0178 13.5025 11.9566 13.5742C11.8953 13.6459 11.8171 13.7011 11.729 13.7347C11.6408 13.7683 11.5457 13.7792 11.4522 13.7664C11.3588 13.7536 11.2701 13.7175 11.1942 13.6615L8.86915 11.9437L7.46051 13.2726C7.44207 13.29 7.42035 13.3036 7.39662 13.3125C7.37289 13.3214 7.34762 13.3255 7.32229 13.3245C7.29695 13.3235 7.27207 13.3175 7.24908 13.3069C7.22609 13.2962 7.20546 13.281 7.1884 13.2623L7.15813 13.229L7.40289 10.8604L11.8144 6.82966C11.8362 6.80976 11.8498 6.78241 11.8525 6.753C11.8551 6.72359 11.8466 6.69425 11.8287 6.67079C11.8108 6.64732 11.7847 6.63142 11.7556 6.62623C11.7266 6.62104 11.6966 6.62693 11.6717 6.64274L6.02982 10.2136L3.6 9.39751C3.53539 9.37581 3.47908 9.33464 3.4388 9.27967C3.39851 9.22469 3.37622 9.1586 3.37499 9.09045C3.37376 9.02231 3.39364 8.95545 3.43191 8.89905C3.47019 8.84266 3.52497 8.79948 3.58875 8.77546L13.0957 5.19413C13.169 5.16653 13.2484 5.15914 13.3256 5.17273C13.4028 5.18632 13.4749 5.22039 13.5344 5.27138C13.5939 5.32237 13.6386 5.38841 13.6638 5.46259C13.6891 5.53677 13.6939 5.61637 13.6779 5.69306Z" fill="black"/>
</svg>
